<svg width="30" height="30" viewBox="0 0 30 30" fill="none" xmlns="http://www.w3.org/2000/svg">
<path fill-rule="evenodd" clip-rule="evenodd" d="M10.9219 6.44811C7.00171 5.73421 3.90187 6.48092 2.66625 8.62124C1.74421 10.2178 2.00765 12.3351 3.30515 14.5978C3.35843 14.6901 3.44608 14.7575 3.54894 14.7854C3.6518 14.8132 3.7615 14.7992 3.85406 14.7464C3.94635 14.6931 4.01379 14.6055 4.04163 14.5026C4.06948 14.3997 4.05546 14.29 4.00265 14.1975C2.83406 12.1584 2.60671 10.3317 3.36234 9.02249C4.39359 7.24499 7.15359 6.57843 10.778 7.23843C10.8828 7.25717 10.9908 7.23368 11.0783 7.17308C11.1659 7.11248 11.2259 7.01969 11.2453 6.91499C11.2641 6.81016 11.2406 6.70218 11.18 6.61462C11.1194 6.52706 11.0266 6.46703 10.9219 6.44764V6.44811ZM5.34375 17.3437C6.92906 19.0856 8.98828 20.7197 11.3372 22.0758C17.0287 25.3594 23.0827 26.2406 26.0625 24.2062C26.1503 24.1459 26.2108 24.0533 26.2305 23.9486C26.2503 23.8439 26.2278 23.7357 26.168 23.6475C26.1077 23.5596 26.0151 23.4992 25.9104 23.4795C25.8057 23.4597 25.6974 23.4822 25.6092 23.542C22.9387 25.3626 17.1877 24.5292 11.7342 21.3834C9.45609 20.0681 7.46156 18.4856 5.93343 16.8065C5.8615 16.7279 5.76135 16.6809 5.65489 16.6759C5.54842 16.6709 5.4443 16.7083 5.36531 16.7798C5.28665 16.8518 5.23969 16.9519 5.23468 17.0584C5.22967 17.1648 5.26703 17.269 5.33859 17.348L5.34375 17.3437ZM25.1147 16.8595C27.6816 13.8267 28.5778 10.777 27.345 8.64233C26.438 7.07108 24.5203 6.24139 21.9712 6.20858C21.8647 6.20745 21.7621 6.24853 21.6858 6.32283C21.6094 6.39714 21.5656 6.49863 21.5639 6.60514C21.5628 6.71166 21.6038 6.81429 21.6782 6.89062C21.7525 6.96695 21.854 7.01076 21.9605 7.01249C24.2573 7.04249 25.905 7.75686 26.648 9.04452C27.6722 10.8183 26.873 13.538 24.5002 16.3411C24.4315 16.4226 24.3979 16.5279 24.4066 16.6341C24.4154 16.7403 24.4659 16.8387 24.547 16.9078C24.6285 16.9765 24.7339 17.0101 24.8401 17.0013C24.9463 16.9925 25.0447 16.9421 25.1137 16.8609L25.1147 16.8595ZM18.5175 6.58124C16.1972 7.07811 13.7259 8.05077 11.3536 9.42046C5.48297 12.8095 1.65328 17.8125 2.18437 21.4312C2.20013 21.5366 2.25695 21.6314 2.34241 21.695C2.42787 21.7586 2.53503 21.7858 2.64046 21.7706C2.74582 21.7549 2.84065 21.698 2.90424 21.6126C2.96783 21.5271 2.99501 21.42 2.97984 21.3145C2.50781 18.097 6.13781 13.3598 11.7548 10.1114C14.0517 8.78249 16.4484 7.84124 18.6853 7.36171C18.7894 7.33911 18.8803 7.27624 18.9382 7.18683C18.9961 7.09742 19.0162 6.98873 18.9942 6.88452C18.9716 6.78043 18.9087 6.68952 18.8193 6.63164C18.7299 6.57376 18.6212 6.55362 18.517 6.57561L18.5175 6.58124Z" fill="#47848F"/>
<path fill-rule="evenodd" clip-rule="evenodd" d="M9.00701 23.9447C10.349 27.6924 12.5447 30 15.014 30C16.815 30 18.4809 28.7719 19.7798 26.611C19.8345 26.5195 19.8507 26.4102 19.825 26.3068C19.7992 26.2034 19.7336 26.1144 19.6425 26.0592C19.551 26.0046 19.4417 25.9884 19.3383 26.0141C19.2349 26.0398 19.1459 26.1054 19.0908 26.1966C17.9189 28.1386 16.4892 29.1952 15.014 29.1952C12.9633 29.1952 11.0048 27.1327 9.76404 23.6733C9.72783 23.5731 9.6534 23.4913 9.55704 23.4458C9.46068 23.4003 9.35023 23.3948 9.24982 23.4305C9.1496 23.4667 9.0678 23.5411 9.0223 23.6375C8.9768 23.7339 8.9713 23.8443 9.00701 23.9447ZM21.2662 23.2116C21.9609 20.9911 22.334 18.4303 22.334 15.7608C22.334 9.10081 20.0029 3.35956 16.6828 1.88581C16.5853 1.84283 16.4747 1.8402 16.3753 1.8785C16.2759 1.9168 16.1957 1.9929 16.1522 2.09018C16.1092 2.18768 16.1066 2.29823 16.1449 2.39767C16.1832 2.4971 16.2593 2.57732 16.3565 2.62081C19.3181 3.93518 21.5297 9.3844 21.5297 15.7613C21.5297 18.3507 21.1687 20.8313 20.4984 22.9721C20.4668 23.0738 20.4768 23.1839 20.5262 23.2784C20.5755 23.3728 20.6603 23.4438 20.7619 23.476C20.8636 23.5076 20.9737 23.4976 21.0682 23.4482C21.1626 23.3989 21.2336 23.3141 21.2658 23.2125L21.2662 23.2116ZM28.8375 22.8178C28.8375 21.7552 27.9759 20.8936 26.9133 20.8936C25.8506 20.8936 24.9844 21.75 24.9844 22.8178C24.9844 23.8857 25.8459 24.7421 26.9086 24.7421C27.9712 24.7421 28.8328 23.8805 28.8328 22.8178H28.8375ZM28.0336 22.8178C28.0335 23.1148 27.9154 23.3996 27.7054 23.6096C27.4955 23.8195 27.2107 23.9376 26.9137 23.9377C26.6168 23.9376 26.332 23.8195 26.122 23.6096C25.912 23.3996 25.794 23.1148 25.7939 22.8178C25.794 22.5209 25.912 22.2361 26.122 22.0261C26.332 21.8161 26.6168 21.6981 26.9137 21.698C27.2107 21.6981 27.4955 21.8161 27.7054 22.0261C27.9154 22.2361 28.0335 22.5209 28.0336 22.8178V22.8178Z" fill="#47848F"/>
<path fill-rule="evenodd" clip-rule="evenodd" d="M3.08628 24.742C4.14893 24.742 5.0105 23.8805 5.0105 22.8178C5.0105 21.7552 4.14893 20.8936 3.08628 20.8936C2.57594 20.8937 2.08653 21.0964 1.72572 21.4574C1.3649 21.8183 1.16223 22.3077 1.16229 22.818C1.16235 23.3284 1.36514 23.8178 1.72605 24.1786C2.08695 24.5394 2.57641 24.7421 3.08675 24.742H3.08628ZM3.08628 23.9381C2.78931 23.938 2.50455 23.82 2.29456 23.61C2.08458 23.4 1.96656 23.1152 1.96643 22.8183C1.96656 22.5213 2.08458 22.2366 2.29456 22.0266C2.50455 21.8166 2.78931 21.6986 3.08628 21.6984C3.38324 21.6986 3.668 21.8166 3.87799 22.0266C4.08797 22.2366 4.206 22.5213 4.20612 22.8183C4.206 23.1152 4.08797 23.4 3.87799 23.61C3.668 23.82 3.38324 23.938 3.08628 23.9381V23.9381ZM15.0141 3.84375C16.0767 3.84375 16.9383 2.98219 16.9383 1.91953C16.9383 0.856875 16.0763 0 15.0141 0C13.9519 0 13.0899 0.861563 13.0899 1.92422C13.0899 2.98687 13.9514 3.84375 15.0141 3.84375ZM15.0141 3.03984C14.7171 3.03972 14.4324 2.9217 14.2224 2.71171C14.0124 2.50173 13.8944 2.21696 13.8942 1.92C13.8944 1.62304 14.0124 1.33827 14.2224 1.12829C14.4324 0.918304 14.7171 0.80028 15.0141 0.800156C15.3111 0.80028 15.5958 0.918304 15.8058 1.12829C16.0158 1.33827 16.1338 1.62304 16.1339 1.92C16.1338 2.21696 16.0158 2.50173 15.8058 2.71171C15.5958 2.9217 15.3111 3.03972 15.0141 3.03984V3.03984ZM15.3075 17.1211C15.1283 17.161 14.943 17.1651 14.7623 17.1331C14.5815 17.1011 14.4088 17.0337 14.2542 16.9347C14.0996 16.8357 13.9661 16.7071 13.8614 16.5563C13.7567 16.4055 13.6828 16.2355 13.6441 16.0561C13.6053 15.8767 13.6025 15.6913 13.6356 15.5108C13.6688 15.3302 13.7373 15.158 13.8373 15.004C13.9372 14.8501 14.0667 14.7174 14.2181 14.6137C14.3696 14.5099 14.54 14.4371 14.7197 14.3995C14.8989 14.3596 15.0842 14.3556 15.265 14.3875C15.4457 14.4195 15.6184 14.487 15.773 14.586C15.9276 14.6849 16.0611 14.8135 16.1658 14.9643C16.2705 15.1151 16.3444 15.2851 16.3831 15.4645C16.4219 15.644 16.4248 15.8293 16.3916 16.0098C16.3585 16.1904 16.2899 16.3626 16.19 16.5166C16.09 16.6705 15.9606 16.8032 15.8091 16.907C15.6577 17.0107 15.4872 17.0835 15.3075 17.1211V17.1211Z" fill="#47848F"/>
</svg>
