<svg width="30" height="39" viewBox="0 0 30 39" fill="none" xmlns="http://www.w3.org/2000/svg">
<path d="M7.5014 39C11.6406 39 14.9999 36.088 14.9999 32.5V26H7.5014C3.36224 26 0.00292969 28.912 0.00292969 32.5C0.00292969 36.088 3.36224 39 7.5014 39Z" fill="#0ACF83"/>
<path d="M0.00292969 19.5C0.00292969 15.912 3.36224 13 7.5014 13H14.9999V26H7.5014C3.36224 26 0.00292969 23.088 0.00292969 19.5Z" fill="#A259FF"/>
<path d="M0.00292969 6.50006C0.00292969 2.91206 3.36224 6.10352e-05 7.5014 6.10352e-05H14.9999V13.0001H7.5014C3.36224 13.0001 0.00292969 10.0881 0.00292969 6.50006Z" fill="#F24E1E"/>
<path d="M15 6.10352e-05H22.4985C26.6377 6.10352e-05 29.9971 2.91206 29.9971 6.50006C29.9971 10.0881 26.6377 13.0001 22.4985 13.0001H15V6.10352e-05Z" fill="#FF7262"/>
<path d="M29.9971 19.5C29.9971 23.088 26.6377 26 22.4985 26C18.3593 26 15 23.088 15 19.5C15 15.912 18.3593 13 22.4985 13C26.6377 13 29.9971 15.912 29.9971 19.5Z" fill="#1ABCFE"/>
</svg>
