<svg width="30" height="30" viewBox="0 0 30 30" fill="none" xmlns="http://www.w3.org/2000/svg">
<path d="M25.625 3.125H4.375L6.25 24.375L15 26.875L23.75 24.375L25.625 3.125Z" fill="#E65100"/>
<path d="M15 5V24.9375L22 22.9375L23.5625 5H15Z" fill="#E65100"/>
<path d="M15 15.625V13.125H20.375L19.9375 20.3125L15 21.9375V19.3125L17.5625 18.4375L17.75 15.625H15ZM20.5625 10.625L20.75 8.125H15V10.625H20.5625Z" fill="white"/>
<path d="M15 19.3125V21.9375L10.0625 20.3125L9.8125 16.875H12.3125L12.4375 18.4375L15 19.3125ZM11.9375 10.625H15V8.125H9.3125L9.75 15.625H15V13.125H12.125L11.9375 10.625Z" fill="white"/>
</svg>
