<svg width="30" height="30" viewBox="0 0 30 30" fill="none" xmlns="http://www.w3.org/2000/svg">
<path d="M10.7525 11.9512L7.68562 13.6481C7.57062 13.7112 7.5 13.8287 7.5 13.9556V17.3512C7.5 17.4781 7.57062 17.595 7.68562 17.6587L10.7531 19.3569C10.8675 19.42 11.0094 19.42 11.1237 19.3569L14.1906 17.6587C14.3044 17.595 14.375 17.4781 14.375 17.3512V13.9556C14.375 13.8287 14.3044 13.7119 14.1894 13.6481L11.1231 11.9512C11.0656 11.9194 11.0012 11.9037 10.9375 11.9037C10.8731 11.9037 10.8094 11.9194 10.7519 11.9512H10.7525ZM26.5319 15.0081L26.0206 15.2906C26.0012 15.3012 25.99 15.3206 25.99 15.3419V15.9081C25.99 15.9294 26.0019 15.9487 26.0206 15.9594L26.5319 16.2425C26.5512 16.2531 26.5744 16.2531 26.5937 16.2425L27.105 15.9594C27.1237 15.9487 27.1356 15.9294 27.1356 15.9081V15.3419C27.1356 15.3206 27.1237 15.3012 27.1044 15.2906L26.5931 15.0081C26.5837 15.0025 26.5731 15 26.5625 15C26.5519 15 26.5412 15.0025 26.5319 15.0081Z" fill="#388E3C"/>
<path d="M22.3444 8.35248L20.8513 7.51935C20.8044 7.4931 20.7469 7.49373 20.7006 7.52123C20.6544 7.54873 20.6256 7.5981 20.6256 7.65185L20.625 12.6844L19.2481 11.9225C19.1906 11.8906 19.1263 11.875 19.0625 11.875C18.9988 11.875 18.9344 11.8906 18.8769 11.9225H18.8775L15.8106 13.6194C15.6956 13.6825 15.625 13.8 15.625 13.9262V17.3219C15.625 17.4487 15.6956 17.5656 15.8106 17.6294L18.8781 19.3275C18.9925 19.3906 19.1344 19.3906 19.2488 19.3275L22.3156 17.6294C22.4294 17.5662 22.5 17.4487 22.5 17.3219V8.61748C22.5 8.50748 22.44 8.40623 22.3444 8.35248ZM20.5413 16.5362L19.1475 17.3081C19.0956 17.3369 19.0313 17.3369 18.9794 17.3081L17.585 16.5362C17.5319 16.5075 17.5 16.4537 17.5 16.3962V14.8525C17.5 14.795 17.5319 14.7419 17.5844 14.7125L18.9787 13.9412H18.9781C19.0044 13.9269 19.0331 13.92 19.0625 13.92C19.0919 13.92 19.1206 13.9275 19.1469 13.9412L20.5406 14.7125C20.5931 14.7419 20.625 14.7956 20.625 14.8531V16.3969C20.625 16.4537 20.5931 16.5075 20.5413 16.5362Z" fill="#37474F"/>
<path d="M10.7525 11.9512L7.5 17.3512C7.5 17.4781 7.57062 17.595 7.68562 17.6587L10.7531 19.3569C10.8675 19.42 11.0094 19.42 11.1238 19.3569L14.375 13.9556C14.375 13.8287 14.3044 13.7119 14.1894 13.6481L11.1231 11.9512C11.0656 11.9194 11.0013 11.9037 10.9375 11.9037C10.8731 11.9037 10.8094 11.9194 10.7519 11.9512" fill="#2E7D32"/>
<path d="M10.7525 11.9512L7.68562 13.6481C7.57062 13.7112 7.5 13.8287 7.5 13.9556L10.7525 19.3569C10.8669 19.42 11.0088 19.42 11.1231 19.3569L14.19 17.6587C14.3044 17.595 14.375 17.4781 14.375 17.3512L11.1231 11.9512C11.0656 11.9194 11.0013 11.9037 10.9375 11.9037C10.8731 11.9037 10.8094 11.9194 10.7519 11.9512" fill="#4CAF50"/>
<path d="M29.8144 13.6194L26.7481 11.9225C26.6906 11.8906 26.6262 11.875 26.5625 11.875C26.4988 11.875 26.4344 11.8906 26.3769 11.9225H26.3775L23.3106 13.6194C23.1963 13.6825 23.125 13.8025 23.125 13.9338V17.3156C23.125 17.4462 23.1963 17.5669 23.3106 17.63L26.3781 19.3281C26.4931 19.3919 26.6338 19.3919 26.7488 19.3281L28.1631 18.545C28.2925 18.4731 28.2919 18.2875 28.1619 18.2162L25.0844 16.5369C25.0325 16.5075 25 16.4531 25 16.3944V14.8531C25 14.7956 25.0312 14.7425 25.0813 14.715L26.4781 13.9425H26.4775C26.5037 13.9281 26.5325 13.9212 26.5619 13.9212C26.5912 13.9212 26.62 13.9288 26.6462 13.9425L28.0431 14.7156C28.0931 14.7431 28.1244 14.7963 28.1244 14.8538V16.1112C28.1244 16.165 28.1531 16.215 28.2 16.2419C28.2469 16.2681 28.3044 16.2681 28.3512 16.2412L29.85 15.3706C29.9425 15.3169 30 15.2175 30 15.11V13.935C30 13.8031 29.9287 13.6825 29.8144 13.6194ZM6.68937 13.6194L3.62313 11.9225C3.56562 11.8906 3.50125 11.875 3.4375 11.875C3.37375 11.875 3.30938 11.8906 3.25187 11.9225H3.2525L0.185625 13.6194C0.07125 13.6825 0 13.8025 0 13.9338V18.5994C0 18.6531 0.02875 18.7031 0.075625 18.73C0.1225 18.7562 0.18 18.7562 0.226875 18.7294L1.72562 17.8587C1.81813 17.805 1.875 17.7056 1.875 17.5981V14.8525C1.875 14.795 1.90625 14.7419 1.95625 14.7144L3.35312 13.9419C3.37937 13.9275 3.40812 13.9206 3.4375 13.9206C3.46688 13.9206 3.49563 13.9281 3.52188 13.9419L4.91875 14.715C4.96875 14.7425 5 14.7956 5 14.8531V17.5988C5 17.7063 5.05687 17.8056 5.15 17.8594L6.64875 18.73C6.69562 18.7569 6.75313 18.7569 6.8 18.7306C6.84625 18.7031 6.875 18.6531 6.875 18.5994V13.9344C6.875 13.8031 6.80375 13.6825 6.68937 13.6194Z" fill="#37474F"/>
</svg>
