<svg width="30" height="30" viewBox="0 0 30 30" fill="none" xmlns="http://www.w3.org/2000/svg">
<path d="M15 21.25C6.9375 21.25 0.625 18.5 0.625 15C0.625 11.5 6.9375 8.75 15 8.75C23.0625 8.75 29.375 11.5 29.375 15C29.375 18.5 23.0625 21.25 15 21.25ZM15 10C7.125 10 1.875 12.5625 1.875 15C1.875 17.4375 7.125 20 15 20C22.875 20 28.125 17.4375 28.125 15C28.125 12.5625 22.875 10 15 10Z" fill="#80DEEA"/>
<path d="M9.43749 27.875C8.81249 27.875 8.31249 27.75 7.81249 27.4375C4.74999 25.6875 5.56249 18.875 9.56249 11.875C11.4375 8.62498 13.75 5.87498 16 4.12498C18.4375 2.24998 20.625 1.68748 22.125 2.56248C23.6875 3.43748 24.25 5.62498 23.875 8.68748C23.5 11.5625 22.25 14.9375 20.375 18.1875C18.5 21.4375 16.1875 24.1875 13.9375 25.9375C12.3125 27.1875 10.75 27.875 9.43749 27.875ZM20.5625 3.37498C19.5625 3.37498 18.25 3.93748 16.8125 5.06248C14.6875 6.74998 12.5 9.37498 10.6875 12.5C6.74999 19.3125 6.37499 25.1875 8.43749 26.375C9.49999 27 11.25 26.4375 13.1875 24.9375C15.3125 23.25 17.5 20.625 19.3125 17.5C21.125 14.375 22.3125 11.1875 22.6875 8.49998C23 5.99998 22.625 4.24998 21.5625 3.62498C21.25 3.49998 20.9375 3.37498 20.5625 3.37498Z" fill="#80DEEA"/>
<path d="M20.625 27.875C17.5 27.875 13 24.0625 9.62497 18.125C5.56247 11.125 4.74997 4.31248 7.81247 2.56248C10.875 0.812483 16.375 4.87498 20.4375 11.875C22.3125 15.125 23.5625 18.5 23.9375 21.375C24.375 24.4375 23.75 26.5625 22.1875 27.5C21.6875 27.75 21.1875 27.875 20.625 27.875ZM8.43747 3.62498C6.37497 4.81248 6.74997 10.6875 10.6875 17.5C14.625 24.3125 19.5 27.5625 21.5625 26.375C22.625 25.75 23 24 22.6875 21.5C22.3125 18.8125 21.125 15.625 19.3125 12.5C15.375 5.68748 10.5 2.43748 8.43747 3.62498Z" fill="#80DEEA"/>
<path d="M15 17.5C16.3807 17.5 17.5 16.3807 17.5 15C17.5 13.6193 16.3807 12.5 15 12.5C13.6193 12.5 12.5 13.6193 12.5 15C12.5 16.3807 13.6193 17.5 15 17.5Z" fill="#80DEEA"/>
</svg>
