<svg width="161" height="150" viewBox="0 0 161 150" fill="none" xmlns="http://www.w3.org/2000/svg">
<path d="M137.437 15.625H23.6322L33.6738 121.875L80.5344 134.375L127.395 121.875L137.437 15.625Z" fill="#0277BD"/>
<path d="M80.5344 25V124.687L118.023 114.687L126.391 25H80.5344Z" fill="#0277BD"/>
<path d="M110.994 40.625H80.5344V53.125H96.9357L95.9315 65.625H80.5344V78.125H95.2621L94.2579 92.1875L80.5344 96.5625V109.688L106.977 101.563L109.32 65.625L110.994 40.625Z" fill="white"/>
<path d="M80.5345 40.625V53.125H50.7445L49.7404 40.625H80.5345ZM65.1374 65.625L65.8069 78.125H80.5345V65.625H65.1374ZM66.4763 84.375H53.0875L54.0917 101.563L80.5345 109.688V96.5625L66.811 92.1875L66.4763 84.375Z" fill="white"/>
</svg>
