<svg width="30" height="30" viewBox="0 0 30 30" fill="none" xmlns="http://www.w3.org/2000/svg">
<path d="M25 12.5C25.2444 11.4156 24.9425 10.1375 23.4375 8.75C20.9912 10.9644 21.6906 13.2669 22.5 14.375C22.5 14.375 22.3962 15 20 15C17.6037 15 1.24999 15 1.24999 15C1.24999 15 0.104362 25 11.25 25C20.9956 25 23.7331 17.4981 24.2675 15.5775C24.4887 15.6075 24.7369 15.6269 25 15.625C26.3419 15.6144 28.0812 14.8931 28.75 12.1975C26.9762 11.5831 25.8369 11.8612 25 12.5Z" fill="#03A9F4"/>
<path d="M1.35315 17.5C1.81252 20.4619 3.7394 25 11.25 25C18.8656 25 22.2019 20.4188 23.5513 17.5H1.35315Z" fill="#0288D1"/>
<path d="M12.3825 24.9612C11.8075 24.76 9.2125 24.28 8.75 20.625C6.11937 21.7894 3.78875 21.4844 2.76312 21.255C4.11437 23.2731 6.61937 25 11.25 25C11.6394 25 12.015 24.985 12.3825 24.9612Z" fill="#81D4FA"/>
<path d="M11.25 18.75C10.9185 18.75 10.6005 18.8817 10.3661 19.1161C10.1317 19.3505 10 19.6685 10 20C10 20.3315 10.1317 20.6495 10.3661 20.8839C10.6005 21.1183 10.9185 21.25 11.25 21.25C11.5815 21.25 11.8995 21.1183 12.1339 20.8839C12.3683 20.6495 12.5 20.3315 12.5 20C12.5 19.6685 12.3683 19.3505 12.1339 19.1161C11.8995 18.8817 11.5815 18.75 11.25 18.75Z" fill="white"/>
<path d="M9.32125 20.9981C9.46125 21.3137 9.33375 21.7244 9.0025 21.8219C6.93937 22.43 5.16125 22.5106 3.81687 22.5106C3.41437 22.1237 3.07063 21.7112 2.78188 21.2837C4.3975 21.2837 6.97563 21.2087 8.49688 20.68C8.82313 20.5662 9.18125 20.6812 9.32125 20.9981ZM1.25 16.875C1.25 16.875 2.42188 16.9531 3.125 16.25C4.29688 17.305 6.8375 16.93 7.5 16.25C8.16437 17.305 11.8363 17.1094 12.5 16.25C13.2812 17.1487 16.6406 17.3437 17.5 16.25C17.7994 17.1631 21.7619 17.4212 22.5 16.25C23.1631 16.93 25.6644 17.4612 27.0694 16.25C27.4219 16.9925 28.75 16.875 28.75 16.875V17.5H1.25V16.875ZM10.625 20C10.625 20.345 10.905 20.625 11.25 20.625C11.595 20.625 11.875 20.345 11.875 20C11.875 19.655 11.595 19.375 11.25 19.375C10.905 19.375 10.625 19.655 10.625 20Z" fill="#37474F"/>
<path d="M6.875 15H3.75V11.875H6.875V15ZM13.125 11.875H10V15H13.125V11.875ZM19.375 11.875H16.25V15H19.375V11.875ZM10 8.75H6.875V11.875H10V8.75ZM16.25 8.75H13.125V11.875H16.25V8.75Z" fill="#01579B"/>
<path d="M10 15H6.875V11.875H10V15ZM16.25 11.875H13.125V15H16.25V11.875ZM16.25 5.625H13.125V8.75H16.25V5.625ZM13.125 8.75H10V11.875H13.125V8.75Z" fill="#0288D1"/>
</svg>
