<svg width="30" height="30" viewBox="0 0 30 30" fill="none" xmlns="http://www.w3.org/2000/svg">
<path d="M15.3125 28.2256L4.375 21.7625V8.86248L15.3125 2.39935L26.25 8.86248V21.7625L15.3125 28.2256ZM5.625 21.05L15.3125 26.7744L25 21.05V9.57498L15.3125 3.8506L5.625 9.57498V21.05Z" fill="#FF4081"/>
<path d="M15.3125 5.625C16.5206 5.625 17.5 4.64562 17.5 3.4375C17.5 2.22938 16.5206 1.25 15.3125 1.25C14.1044 1.25 13.125 2.22938 13.125 3.4375C13.125 4.64562 14.1044 5.625 15.3125 5.625Z" fill="#FF4081"/>
<path d="M15.3125 29.375C16.5206 29.375 17.5 28.3956 17.5 27.1875C17.5 25.9794 16.5206 25 15.3125 25C14.1044 25 13.125 25.9794 13.125 27.1875C13.125 28.3956 14.1044 29.375 15.3125 29.375Z" fill="#FF4081"/>
<path d="M5.3125 23.125C6.52062 23.125 7.5 22.1456 7.5 20.9375C7.5 19.7294 6.52062 18.75 5.3125 18.75C4.10438 18.75 3.125 19.7294 3.125 20.9375C3.125 22.1456 4.10438 23.125 5.3125 23.125Z" fill="#FF4081"/>
<path d="M25.3125 23.125C26.5206 23.125 27.5 22.1456 27.5 20.9375C27.5 19.7294 26.5206 18.75 25.3125 18.75C24.1044 18.75 23.125 19.7294 23.125 20.9375C23.125 22.1456 24.1044 23.125 25.3125 23.125Z" fill="#FF4081"/>
<path d="M5.3125 11.875C6.52062 11.875 7.5 10.8956 7.5 9.6875C7.5 8.47938 6.52062 7.5 5.3125 7.5C4.10438 7.5 3.125 8.47938 3.125 9.6875C3.125 10.8956 4.10438 11.875 5.3125 11.875Z" fill="#FF4081"/>
<path d="M25.3125 11.875C26.5206 11.875 27.5 10.8956 27.5 9.6875C27.5 8.47938 26.5206 7.5 25.3125 7.5C24.1044 7.5 23.125 8.47938 23.125 9.6875C23.125 10.8956 24.1044 11.875 25.3125 11.875Z" fill="#FF4081"/>
<path d="M26.7 21.875H3.92499L15.3125 1.86127L26.7 21.875ZM6.07499 20.625H24.55L15.3125 4.38877L6.07499 20.625Z" fill="#FF4081"/>
</svg>
