<svg width="88" height="19" viewBox="0 0 88 19" fill="none" xmlns="http://www.w3.org/2000/svg">
<path d="M5.2625 13.324L1.4065 9.644L5.2625 5.98H7.1025L3.2305 9.644L7.1025 13.324H5.2625Z" fill="#F3F3F3"/>
<path d="M19.3363 7.58C19.0269 6.92933 18.5789 6.428 17.9923 6.076C17.4056 5.71333 16.7229 5.532 15.9443 5.532C15.1656 5.532 14.4616 5.71333 13.8323 6.076C13.2136 6.428 12.7229 6.94 12.3603 7.612C12.0083 8.27333 11.8323 9.04133 11.8323 9.916C11.8323 10.7907 12.0083 11.5587 12.3603 12.22C12.7229 12.8813 13.2136 13.3933 13.8323 13.756C14.4616 14.108 15.1656 14.284 15.9443 14.284C17.0323 14.284 17.9283 13.9587 18.6323 13.308C19.3363 12.6573 19.7469 11.7773 19.8643 10.668H15.4163V9.484H21.4163V10.604C21.3309 11.5213 21.0429 12.364 20.5523 13.132C20.0616 13.8893 19.4163 14.492 18.6163 14.94C17.8163 15.3773 16.9256 15.596 15.9443 15.596C14.9096 15.596 13.9656 15.356 13.1123 14.876C12.2589 14.3853 11.5816 13.708 11.0803 12.844C10.5896 11.98 10.3443 11.004 10.3443 9.916C10.3443 8.828 10.5896 7.852 11.0803 6.988C11.5816 6.11333 12.2589 5.436 13.1123 4.956C13.9656 4.46533 14.9096 4.22 15.9443 4.22C17.1283 4.22 18.1736 4.51333 19.0803 5.1C19.9976 5.68667 20.6643 6.51333 21.0803 7.58H19.3363ZM24.7974 3.66V15.5H23.3414V3.66H24.7974ZM35.2789 10.78C35.2789 11.0573 35.2629 11.3507 35.2309 11.66H28.2229C28.2762 12.524 28.5695 13.2013 29.1029 13.692C29.6469 14.172 30.3029 14.412 31.0709 14.412C31.7002 14.412 32.2229 14.268 32.6389 13.98C33.0655 13.6813 33.3642 13.2867 33.5349 12.796H35.1029C34.8682 13.6387 34.3989 14.3267 33.6949 14.86C32.9909 15.3827 32.1162 15.644 31.0709 15.644C30.2389 15.644 29.4922 15.4573 28.8309 15.084C28.1802 14.7107 27.6682 14.1827 27.2949 13.5C26.9215 12.8067 26.7349 12.0067 26.7349 11.1C26.7349 10.1933 26.9162 9.39867 27.2789 8.716C27.6415 8.03333 28.1482 7.51067 28.7989 7.148C29.4602 6.77467 30.2175 6.588 31.0709 6.588C31.9029 6.588 32.6389 6.76933 33.2789 7.132C33.9189 7.49467 34.4095 7.996 34.7509 8.636C35.1029 9.26533 35.2789 9.98 35.2789 10.78ZM33.7749 10.476C33.7749 9.92133 33.6522 9.44667 33.4069 9.052C33.1615 8.64667 32.8255 8.34267 32.3989 8.14C31.9829 7.92667 31.5189 7.82 31.0069 7.82C30.2709 7.82 29.6415 8.05467 29.1189 8.524C28.6069 8.99333 28.3135 9.644 28.2389 10.476H33.7749ZM38.6568 8.156C38.9128 7.65467 39.2754 7.26533 39.7448 6.988C40.2248 6.71067 40.8061 6.572 41.4888 6.572V8.076H41.1048C39.4728 8.076 38.6568 8.96133 38.6568 10.732V15.5H37.2008V6.732H38.6568V8.156ZM53.7135 6.572C54.3962 6.572 55.0042 6.716 55.5375 7.004C56.0708 7.28133 56.4922 7.70267 56.8015 8.268C57.1108 8.83333 57.2655 9.52133 57.2655 10.332V15.5H55.8255V10.54C55.8255 9.66533 55.6068 8.99867 55.1695 8.54C54.7428 8.07067 54.1615 7.836 53.4255 7.836C52.6682 7.836 52.0655 8.08133 51.6175 8.572C51.1695 9.052 50.9455 9.75067 50.9455 10.668V15.5H49.5055V10.54C49.5055 9.66533 49.2868 8.99867 48.8495 8.54C48.4228 8.07067 47.8415 7.836 47.1055 7.836C46.3482 7.836 45.7455 8.08133 45.2975 8.572C44.8495 9.052 44.6255 9.75067 44.6255 10.668V15.5H43.1695V6.732H44.6255V7.996C44.9135 7.53733 45.2975 7.18533 45.7775 6.94C46.2682 6.69467 46.8068 6.572 47.3935 6.572C48.1295 6.572 48.7802 6.73733 49.3455 7.068C49.9108 7.39867 50.3322 7.884 50.6095 8.524C50.8548 7.90533 51.2602 7.42533 51.8255 7.084C52.3908 6.74267 53.0202 6.572 53.7135 6.572ZM67.6539 10.78C67.6539 11.0573 67.6379 11.3507 67.6059 11.66H60.5979C60.6512 12.524 60.9445 13.2013 61.4779 13.692C62.0219 14.172 62.6779 14.412 63.4459 14.412C64.0752 14.412 64.5979 14.268 65.0139 13.98C65.4405 13.6813 65.7392 13.2867 65.9099 12.796H67.4779C67.2432 13.6387 66.7739 14.3267 66.0699 14.86C65.3659 15.3827 64.4912 15.644 63.4459 15.644C62.6139 15.644 61.8672 15.4573 61.2059 15.084C60.5552 14.7107 60.0432 14.1827 59.6699 13.5C59.2965 12.8067 59.1099 12.0067 59.1099 11.1C59.1099 10.1933 59.2912 9.39867 59.6539 8.716C60.0165 8.03333 60.5232 7.51067 61.1739 7.148C61.8352 6.77467 62.5925 6.588 63.4459 6.588C64.2779 6.588 65.0139 6.76933 65.6539 7.132C66.2939 7.49467 66.7845 7.996 67.1259 8.636C67.4779 9.26533 67.6539 9.98 67.6539 10.78ZM66.1499 10.476C66.1499 9.92133 66.0272 9.44667 65.7819 9.052C65.5365 8.64667 65.2005 8.34267 64.7739 8.14C64.3579 7.92667 63.8939 7.82 63.3819 7.82C62.6459 7.82 62.0165 8.05467 61.4939 8.524C60.9819 8.99333 60.6885 9.644 60.6139 10.476H66.1499Z" fill="#F3F3F3"/>
<path d="M75.6505 2.196L72.3625 15.54H71.2825L74.5585 2.196H75.6505Z" fill="#F3F3F3"/>
<path d="M80.6915 5.98H82.5315L86.4035 9.644L82.5315 13.324H80.6915L84.5635 9.644L80.6915 5.98Z" fill="#F3F3F3"/>
</svg>
