<svg width="517" height="432" viewBox="0 0 517 432" fill="none" xmlns="http://www.w3.org/2000/svg">
<g clip-path="url(#clip0)">
<path d="M282.254 120.307C308.539 120.307 329.847 99.6714 329.847 74.2155C329.847 48.7596 308.539 28.1236 282.254 28.1236C255.97 28.1236 234.661 48.7596 234.661 74.2155C234.661 99.6714 255.97 120.307 282.254 120.307Z" fill="#FEB8B8"/>
<path d="M246.732 97.2616C246.732 97.2616 255.699 162.726 241.904 170.074C228.109 177.421 323.985 178.09 323.985 178.09C323.985 178.09 302.602 121.31 312.259 103.942L246.732 97.2616Z" fill="#FEB8B8"/>
<path d="M393.994 178.42L386.02 213.583L369.16 287.978L368.656 292.052L362.837 339.218L358.967 370.551L356.372 391.599C340.593 399.453 329.157 404.874 329.157 404.874C329.157 404.874 328.173 400.098 326.587 393.987C315.513 397.203 295.023 402.537 277.658 403.602C283.982 410.428 286.887 416.84 282.946 421.572C271.05 435.838 221.94 405.953 204.763 394.808C204.364 397.476 204.212 400.174 204.31 402.869L191.166 393.078L192.466 370.551L194.661 332.436L197.418 284.637C196.548 282.59 195.82 280.49 195.237 278.35C191.211 264.485 186.325 236.8 182.577 213.583C179.561 194.899 177.296 179.11 176.817 175.75C176.752 175.311 176.72 175.086 176.72 175.086L249.485 143.947C254.657 155.561 278.804 159.052 278.804 159.052C298.809 157.717 314.491 147.501 314.491 147.501L393.994 178.42Z" fill="#D0CDE1"/>
<path d="M334.677 391.517C334.677 391.517 331.597 392.539 326.587 393.987C315.513 397.203 295.023 402.536 277.658 403.602C262.708 404.53 250.074 402.298 247.764 392.853C246.774 388.791 248.178 385.45 251.239 382.705C260.378 374.5 284.247 371.56 303.178 370.551C308.524 370.269 313.468 370.138 317.585 370.087C324.574 370 329.157 370.138 329.157 370.138L329.267 370.551L334.677 391.517Z" fill="#A0616A"/>
<path d="M242.661 30.6168L233.763 27.1667C233.763 27.1667 252.369 7.32817 278.256 9.05333L270.975 1.29036C270.975 1.29036 288.773 -5.60992 304.952 12.5034C313.458 22.0252 323.298 33.2176 329.433 45.8256H338.963L334.985 54.3072L348.907 62.7889L334.618 61.2654C335.469 65.91 335.6 70.6518 335.006 75.3338C334.393 80.0172 331.925 84.2868 328.123 87.2415C328.123 87.2415 317.087 65.1185 317.087 61.6683V70.2937C317.087 70.2937 308.188 62.5309 308.188 57.3556L303.334 63.3934L300.908 53.9054L270.975 63.3934L275.829 55.6306L257.223 58.2182L264.504 48.7302C264.504 48.7302 243.471 59.9432 242.661 69.4313C241.853 78.9192 235.696 87.9096 235.696 87.9096C235.696 87.9096 219.201 43.5549 242.661 30.6168Z" fill="#2F2E41"/>
<path d="M445.725 340.077C440.877 345.166 428.865 352.832 414.303 361.131C408.886 364.215 403.119 367.392 397.236 370.551C383.198 378.092 368.5 385.563 356.372 391.599C340.593 399.453 329.157 404.875 329.157 404.875C329.157 404.875 328.173 400.098 326.587 393.987C324.464 385.808 321.267 375.234 317.934 370.551C317.818 370.388 317.701 370.238 317.585 370.088C316.614 368.853 315.636 368.132 314.672 368.132L362.837 339.218L383.651 326.72L368.656 292.052L349.848 248.565L361.2 213.584L372.61 178.421H393.994C393.994 178.421 401.074 193.388 410.129 214.261C411.481 217.382 412.879 220.635 414.303 223.995C432.93 267.87 456.152 329.139 445.725 340.077Z" fill="#58575E"/>
<path d="M282.946 421.572C271.051 435.838 221.94 405.953 204.764 394.808C201.023 392.382 198.796 390.847 198.796 390.847L214.511 370.551L219.488 364.127C219.488 364.127 223.94 366.414 230.522 370.138C230.762 370.275 231.001 370.413 231.247 370.551C236.923 373.779 244.049 377.998 251.24 382.705C261.161 389.205 271.193 396.62 277.659 403.602C283.982 410.428 286.888 416.84 282.946 421.572Z" fill="#A0616A"/>
<path d="M230.522 370.138C228.766 370.131 227.012 370.27 225.28 370.552C210.401 373.027 206.013 386.071 204.764 394.808C204.364 397.477 204.212 400.174 204.311 402.869L191.166 393.079L186.376 389.512C174.85 385.62 164.579 378.706 155.673 370.552C147.947 363.352 141.017 355.393 134.995 346.802C128.996 338.335 123.649 329.453 118.996 320.226C117.697 317.652 116.999 314.832 116.951 311.967C116.903 309.102 117.506 306.262 118.717 303.648L134.995 268.516L158.786 217.169C158.961 215.947 159.153 214.752 159.362 213.584C164.08 187.384 176.72 175.75 176.72 175.75H186.376L192.836 213.584L200.861 260.587L195.237 278.35L182.241 319.374L194.661 332.436L230.522 370.138Z" fill="#58575E"/>
<path d="M241.451 260.624L249.706 269.951C252.773 269.385 255.976 268.72 259.275 267.972L256.904 260.624L262.701 267.175C297.649 258.85 340.966 242.666 340.966 242.666C340.966 242.666 294.2 245.987 259.283 238.599C243.834 235.33 227.938 242.747 221.598 256.778C217.914 264.933 218.492 271.998 231.562 271.998C235.978 271.925 240.381 271.524 244.734 270.798L241.451 260.624Z" fill="#4EBA64"/>
<path d="M429.642 413.925V417.73C429.644 418.774 429.444 419.81 429.053 420.783C428.879 421.216 428.669 421.635 428.425 422.036C427.654 423.29 426.559 424.328 425.249 425.049C423.938 425.77 422.457 426.149 420.95 426.148H131.94C130.433 426.149 128.951 425.77 127.641 425.049C126.33 424.328 125.236 423.29 124.465 422.036C124.221 421.635 124.011 421.216 123.837 420.783C123.445 419.81 123.246 418.774 123.248 417.73V413.925C123.248 412.82 123.472 411.725 123.909 410.704C124.346 409.682 124.986 408.754 125.793 407.972C126.6 407.191 127.558 406.571 128.613 406.148C129.668 405.725 130.798 405.507 131.94 405.508H148.599V403.734C148.599 403.688 148.608 403.642 148.626 403.599C148.645 403.557 148.671 403.518 148.705 403.485C148.739 403.453 148.779 403.427 148.823 403.409C148.867 403.392 148.914 403.383 148.961 403.383H157.653C157.701 403.383 157.748 403.392 157.792 403.409C157.836 403.427 157.876 403.453 157.91 403.485C157.943 403.518 157.97 403.557 157.988 403.599C158.007 403.642 158.016 403.688 158.016 403.734V405.508H163.446V403.734C163.446 403.688 163.455 403.642 163.473 403.599C163.491 403.557 163.518 403.518 163.552 403.485C163.585 403.453 163.625 403.427 163.669 403.409C163.713 403.392 163.761 403.383 163.808 403.383H172.5C172.548 403.383 172.595 403.392 172.639 403.409C172.683 403.427 172.723 403.453 172.757 403.485C172.79 403.518 172.817 403.557 172.835 403.599C172.853 403.642 172.863 403.688 172.863 403.734V405.508H178.299V403.734C178.299 403.688 178.308 403.642 178.327 403.599C178.345 403.557 178.372 403.518 178.405 403.485C178.439 403.453 178.479 403.427 178.523 403.409C178.567 403.392 178.614 403.383 178.662 403.383H187.354C187.401 403.383 187.448 403.392 187.492 403.409C187.536 403.427 187.576 403.453 187.61 403.485C187.644 403.518 187.67 403.557 187.689 403.599C187.707 403.642 187.716 403.688 187.716 403.734V405.508H193.146V403.734C193.146 403.688 193.155 403.642 193.174 403.599C193.192 403.557 193.218 403.518 193.252 403.485C193.286 403.453 193.326 403.427 193.37 403.409C193.414 403.392 193.461 403.383 193.509 403.383H202.201C202.248 403.383 202.295 403.392 202.339 403.409C202.383 403.427 202.423 403.453 202.457 403.485C202.491 403.518 202.517 403.557 202.536 403.599C202.554 403.642 202.563 403.688 202.563 403.734V405.508H207.993V403.734C207.993 403.688 208.002 403.642 208.02 403.599C208.039 403.557 208.065 403.518 208.099 403.485C208.133 403.453 208.173 403.427 208.217 403.409C208.261 403.392 208.308 403.383 208.355 403.383H217.047C217.095 403.383 217.142 403.392 217.186 403.409C217.23 403.427 217.27 403.453 217.304 403.485C217.338 403.518 217.364 403.557 217.383 403.599C217.401 403.642 217.41 403.688 217.41 403.734V405.508H222.846V403.734C222.846 403.688 222.856 403.642 222.874 403.599C222.892 403.557 222.919 403.518 222.952 403.485C222.986 403.453 223.026 403.427 223.07 403.409C223.114 403.392 223.161 403.383 223.209 403.383H231.901C231.949 403.383 231.996 403.392 232.04 403.409C232.084 403.427 232.124 403.453 232.157 403.485C232.191 403.518 232.218 403.557 232.236 403.599C232.254 403.642 232.263 403.688 232.263 403.734V405.508H237.693V403.734C237.693 403.688 237.703 403.642 237.721 403.599C237.739 403.557 237.766 403.518 237.799 403.485C237.833 403.453 237.873 403.427 237.917 403.409C237.961 403.392 238.008 403.383 238.056 403.383H306.142C306.19 403.383 306.237 403.392 306.281 403.409C306.325 403.427 306.365 403.453 306.398 403.485C306.432 403.518 306.459 403.557 306.477 403.599C306.495 403.642 306.505 403.688 306.504 403.734V405.508H311.941V403.734C311.941 403.688 311.95 403.642 311.968 403.599C311.987 403.557 312.013 403.518 312.047 403.485C312.081 403.453 312.121 403.427 312.165 403.409C312.209 403.392 312.256 403.383 312.303 403.383H320.995C321.091 403.384 321.183 403.421 321.251 403.486C321.318 403.552 321.357 403.641 321.358 403.734V405.508H326.788V403.734C326.788 403.688 326.797 403.642 326.815 403.599C326.834 403.557 326.86 403.518 326.894 403.485C326.928 403.453 326.968 403.427 327.012 403.409C327.056 403.392 327.103 403.383 327.15 403.383H335.842C335.89 403.383 335.937 403.392 335.981 403.409C336.025 403.427 336.065 403.453 336.099 403.485C336.132 403.518 336.159 403.557 336.177 403.599C336.196 403.642 336.205 403.688 336.205 403.734V405.508H341.635V403.734C341.635 403.688 341.644 403.642 341.662 403.599C341.68 403.557 341.707 403.518 341.741 403.485C341.775 403.453 341.814 403.427 341.859 403.409C341.903 403.392 341.95 403.383 341.997 403.383H350.689C350.737 403.383 350.784 403.392 350.828 403.409C350.872 403.427 350.912 403.453 350.946 403.485C350.979 403.518 351.006 403.557 351.024 403.599C351.042 403.642 351.052 403.688 351.052 403.734V405.508H356.488V403.734C356.488 403.688 356.498 403.642 356.516 403.599C356.534 403.557 356.561 403.518 356.594 403.485C356.628 403.453 356.668 403.427 356.712 403.409C356.756 403.392 356.803 403.383 356.851 403.383H365.543C365.638 403.384 365.729 403.421 365.795 403.487C365.862 403.553 365.899 403.642 365.899 403.734V405.508H371.335V403.734C371.335 403.688 371.344 403.642 371.363 403.599C371.381 403.557 371.407 403.518 371.441 403.485C371.475 403.453 371.515 403.427 371.559 403.409C371.603 403.392 371.65 403.383 371.698 403.383H380.39C380.437 403.383 380.484 403.392 380.528 403.409C380.572 403.427 380.612 403.453 380.646 403.485C380.68 403.518 380.706 403.557 380.725 403.599C380.743 403.642 380.752 403.688 380.752 403.734V405.508H386.182V403.734C386.182 403.688 386.191 403.642 386.21 403.599C386.228 403.557 386.254 403.518 386.288 403.485C386.322 403.453 386.362 403.427 386.406 403.409C386.45 403.392 386.497 403.383 386.545 403.383H395.237C395.284 403.383 395.331 403.392 395.375 403.409C395.419 403.427 395.459 403.453 395.493 403.485C395.527 403.518 395.553 403.557 395.572 403.599C395.59 403.642 395.599 403.688 395.599 403.734V405.508H420.95C422.092 405.507 423.222 405.725 424.277 406.148C425.331 406.571 426.29 407.191 427.097 407.972C427.904 408.754 428.544 409.682 428.981 410.704C429.418 411.725 429.642 412.82 429.642 413.925Z" fill="#7A7979"/>
<path d="M513.682 420.783H39.2793V422.036H513.682V420.783Z" fill="#3F3D56"/>
<path d="M406.371 253.699H298.648V251.549H249.802V253.699H141.635C139.703 253.699 137.849 254.442 136.483 255.766C135.116 257.089 134.349 258.884 134.349 260.756V403.609C134.349 405.481 135.116 407.275 136.483 408.599C137.849 409.922 139.703 410.666 141.635 410.666H406.371C408.304 410.666 410.157 409.922 411.523 408.599C412.89 407.275 413.658 405.481 413.658 403.609V260.756C413.658 259.829 413.469 258.911 413.103 258.055C412.737 257.199 412.2 256.421 411.523 255.766C410.847 255.11 410.044 254.591 409.16 254.236C408.275 253.881 407.328 253.699 406.371 253.699Z" fill="#1F1F1F"/>
<path d="M274.215 319.242C283.151 319.242 290.395 312.226 290.395 303.572C290.395 294.918 283.151 287.902 274.215 287.902C265.279 287.902 258.035 294.918 258.035 303.572C258.035 312.226 265.279 319.242 274.215 319.242Z" stroke="#D0CDE1" stroke-width="2" stroke-miterlimit="10"/>
<path d="M269.038 324.883C277.974 324.883 285.218 317.868 285.218 309.213C285.218 300.559 277.974 293.544 269.038 293.544C260.102 293.544 252.857 300.559 252.857 309.213C252.857 317.868 260.102 324.883 269.038 324.883Z" fill="#D0CDE1"/>
<path d="M70.31 414.45H52.1882V432H70.31V414.45Z" fill="#D0CDE1"/>
<path d="M59.3101 400.661V421.972H81.3151V400.661H59.3101ZM80.3572 421.044H60.2615V401.588H80.3572V421.044Z" fill="#3F3D56"/>
<path d="M479.417 367.98C478.25 358.773 477.942 349.446 478.498 340.162L479.417 324.796C474.352 336.602 475.496 352.142 479.417 367.98V367.98Z" fill="#CACACA"/>
<path d="M483.367 370.55C482.806 365.057 482.658 359.516 482.925 353.992L483.367 344.846C480.93 351.873 481.481 361.123 483.367 370.55Z" fill="#CACACA"/>
<path d="M500.926 381.862V387.003C500.924 387.411 500.784 387.802 500.538 388.091C500.291 388.38 499.957 388.543 499.609 388.545H497.414C497.357 388.545 497.299 388.558 497.246 388.584C497.193 388.609 497.144 388.647 497.103 388.695C497.063 388.743 497.03 388.799 497.008 388.862C496.986 388.924 496.975 388.991 496.975 389.059V431.215C496.974 431.623 496.834 432.014 496.588 432.303C496.341 432.592 496.007 432.755 495.659 432.757H468.885C468.536 432.757 468.202 432.594 467.955 432.305C467.708 432.016 467.569 431.624 467.569 431.215V389.059C467.568 388.923 467.522 388.792 467.44 388.696C467.358 388.6 467.246 388.545 467.13 388.545H464.496C464.147 388.545 463.813 388.382 463.566 388.093C463.319 387.804 463.18 387.412 463.18 387.003V381.862C463.179 381.659 463.213 381.458 463.279 381.271C463.346 381.084 463.443 380.914 463.565 380.77C463.687 380.627 463.832 380.514 463.992 380.436C464.152 380.359 464.323 380.319 464.496 380.319H499.609C499.958 380.321 500.292 380.483 500.539 380.772C500.785 381.061 500.924 381.453 500.926 381.862Z" fill="#A59F9F"/>
<path d="M497.015 389.624H467.608V391.167H497.015V389.624Z" fill="#E6E6E6"/>
<path d="M496.975 412.319C487.135 417.089 477.188 417.142 467.13 412.319V401.454C476.813 397.644 487.293 397.644 496.975 401.454V412.319Z" fill="#4EBA64"/>
<path d="M343.441 93.1907L340.497 92.1343C342.831 85.138 344.022 77.7881 344.02 70.3937C344.055 34.0373 315.778 4.62164 280.987 4.82118C246.197 5.02071 217.865 34.7611 217.83 71.1174C217.817 78.0438 218.849 84.9219 220.888 91.4984L217.921 92.5231C214.689 82.0987 213.882 71.0043 215.567 60.1564C217.252 49.3085 221.38 39.0186 227.611 30.1368C233.841 21.2551 241.995 14.0364 251.398 9.07724C260.802 4.11809 271.185 1.5608 281.69 1.61668C292.196 1.67257 302.521 4.34001 311.814 9.39862C321.106 14.4572 329.1 21.7618 335.133 30.7088C341.166 39.6558 345.066 49.9884 346.511 60.8529C347.955 71.7174 346.903 82.802 343.441 93.1907Z" fill="#4EBA64"/>
<path d="M236.413 59.9295C230.509 59.9634 224.844 62.4467 220.666 66.8332C216.487 71.2196 214.136 77.1499 214.13 83.3195C214.124 89.489 216.464 95.3924 220.635 99.731C224.805 104.07 230.465 106.488 236.369 106.454L241.898 106.422L241.942 59.8978L236.413 59.9295Z" fill="#4EBA64"/>
<path d="M242.087 56.6384C240.771 56.6475 239.51 57.2016 238.578 58.1791C237.647 59.1567 237.123 60.4778 237.12 61.8527L237.08 104.525C237.078 105.9 237.6 107.216 238.53 108.184C239.459 109.151 240.721 109.69 242.037 109.682C243.353 109.675 244.616 109.121 245.548 108.143C246.479 107.165 247.003 105.843 247.005 104.468L247.045 61.7958C247.045 60.4209 246.523 59.1058 245.593 58.1389C244.664 57.172 243.403 56.6324 242.087 56.6384Z" fill="black"/>
<path d="M319.881 105.989L325.411 105.957C331.314 105.923 336.979 103.44 341.158 99.0531C345.336 94.6667 347.687 88.7364 347.693 82.5668C347.696 79.512 347.123 76.4904 346.007 73.6745C344.891 70.8586 343.254 68.3036 341.189 66.1553C337.018 61.8167 331.358 59.3984 325.454 59.4322L319.925 59.4639L319.881 105.989Z" fill="#4EBA64"/>
<path d="M319.786 56.204C318.47 56.2131 317.208 56.7672 316.277 57.7447C315.346 58.7223 314.821 60.0434 314.818 61.4183L314.778 104.091C314.778 105.465 315.3 106.78 316.23 107.747C317.159 108.713 318.42 109.252 319.736 109.244C321.051 109.237 322.314 108.684 323.245 107.707C324.177 106.729 324.701 105.408 324.703 104.034L324.744 61.3614C324.743 59.9865 324.221 58.6714 323.292 57.7045C322.362 56.7376 321.102 56.198 319.786 56.204Z" fill="black"/>
</g>
<defs>
<clipPath id="clip0">
<rect width="516.877" height="432" fill="white" transform="translate(0.123047)"/>
</clipPath>
</defs>
</svg>
