<svg width="30" height="30" viewBox="0 0 30 30" fill="none" xmlns="http://www.w3.org/2000/svg">
<g clip-path="url(#clip0)">
<path d="M7.09302 7.89503H12.7392V8.64059H7.61059V14.2519H12.4334V14.9974H7.61059V21.1581H12.7981V21.9037H7.09302V7.89503ZM13.2451 7.89503H13.845L16.5034 14.0557L19.2206 7.89503L22.9165 0.0695801L16.8445 14.7031L19.9735 21.9037H19.35L16.5034 15.3506L13.645 21.9037H13.0333L16.1858 14.7031L13.2451 7.89503ZM20.197 8.64059V7.89503H26.6313V8.64059H23.667V21.9037H23.1495V8.64059H20.197Z" fill="white"/>
<path d="M0.0294189 7.89551H0.676382L9.59763 30.074L5.9109 21.9041L0.570516 8.95498L0.54699 21.9041H0.0294189V7.89551Z" fill="white"/>
<path d="M26.5792 20.9322C26.6862 20.9322 26.7643 20.7961 26.7643 20.6202C26.7643 20.4443 26.6862 20.3081 26.5792 20.3081C26.4735 20.3081 26.3942 20.4443 26.3942 20.6202C26.3942 20.7961 26.4735 20.9322 26.5792 20.9322ZM27.0878 20.1113C27.0878 20.6306 27.3131 20.9699 27.6417 20.9699C27.9916 20.9699 28.2031 20.6202 28.2031 20.0129V17.8748H27.9212V20.0108C27.9212 20.3479 27.8192 20.528 27.6392 20.528C27.478 20.528 27.3685 20.3605 27.3647 20.1113H27.0878ZM28.572 20.0841C28.5921 20.6244 28.8628 20.9699 29.2656 20.9699C29.6961 20.9699 29.9655 20.6076 29.9655 20.0296C29.9655 19.5752 29.8119 19.3239 29.4393 19.1794L29.2392 19.0978C29.0025 19.0056 28.9068 18.8821 28.9068 18.6664C28.9068 18.3941 29.0554 18.2161 29.2782 18.2161C29.4897 18.2161 29.6357 18.39 29.6621 18.6685H29.9366C29.9202 18.1596 29.6508 17.8015 29.282 17.8015C28.8854 17.8015 28.6211 18.1596 28.6211 18.6978C28.6211 19.1417 28.7709 19.4056 29.0994 19.5333L29.3336 19.6276C29.574 19.7218 29.6798 19.86 29.6798 20.0904C29.6798 20.3584 29.5136 20.5532 29.287 20.5532C29.044 20.5532 28.8754 20.371 28.8514 20.0841H28.572Z" fill="white"/>
</g>
<defs>
<clipPath id="clip0">
<rect width="30" height="30" fill="white"/>
</clipPath>
</defs>
</svg>
