<svg width="30" height="30" viewBox="0 0 30 30" fill="none" xmlns="http://www.w3.org/2000/svg">
<path d="M24.9168 16.2225C23.9556 16.2275 23.1231 16.4582 22.4256 16.8025C22.1706 16.2932 21.9118 15.845 21.8687 15.5119C21.8181 15.1232 21.7593 14.8907 21.8206 14.4275C21.8818 13.9644 22.15 13.3082 22.1462 13.2588C22.1425 13.2094 22.0862 12.9738 21.5318 12.9694C20.9775 12.9657 20.5031 13.0763 20.4475 13.2225C20.3918 13.3688 20.285 13.6982 20.2187 14.0419C20.1218 14.5444 19.1118 16.3375 18.5387 17.275C18.3512 16.9088 18.1918 16.5863 18.1587 16.3313C18.1081 15.9425 18.0493 15.71 18.1106 15.2469C18.1718 14.7838 18.44 14.1275 18.4362 14.0782C18.4325 14.0288 18.3762 13.7932 17.8218 13.7888C17.2675 13.785 16.7931 13.8957 16.7375 14.0419C16.6818 14.1882 16.6218 14.53 16.5087 14.8613C16.395 15.1919 15.0531 18.1825 14.7012 18.9582C14.5218 19.3532 14.3662 19.6707 14.2562 19.8869C14.2556 19.8863 14.2556 19.8857 14.2556 19.8857C14.2556 19.8857 14.2487 19.9 14.2375 19.9244C14.1431 20.1088 14.0875 20.2107 14.0875 20.2107C14.0875 20.2107 14.0881 20.2119 14.0893 20.2144C14.0143 20.35 13.9343 20.4757 13.895 20.4757C13.8675 20.4757 13.8118 20.115 13.9068 19.62C14.1068 18.5825 14.5862 16.965 14.5818 16.9088C14.5793 16.88 14.6712 16.5982 14.2687 16.4507C13.8775 16.3075 13.7381 16.5463 13.7025 16.5469C13.6681 16.5475 13.6425 16.6313 13.6425 16.6313C13.6425 16.6313 14.0781 14.8119 12.8112 14.8119C12.0187 14.8119 10.9212 15.6788 10.3806 16.4644C10.0393 16.6507 9.30871 17.0494 8.53434 17.475C8.23684 17.6388 7.93309 17.8057 7.64496 17.9644C7.62559 17.9425 7.60559 17.9213 7.58559 17.8994C6.04871 16.26 3.20871 15.1007 3.32871 12.8963C3.37246 12.095 3.65121 9.98503 8.78684 7.42628C12.9937 5.33003 16.3618 5.90691 16.9437 7.18503C17.775 9.01191 15.1437 12.4063 10.775 12.8963C9.11059 13.0832 8.23371 12.4375 8.01558 12.1975C7.78621 11.9444 7.75183 11.9332 7.66621 11.9807C7.52683 12.0582 7.61496 12.2813 7.66621 12.4144C7.79683 12.7538 8.33184 13.3557 9.24434 13.6557C10.0475 13.9194 12.0018 14.0638 14.365 13.1494C17.0125 12.1257 19.0793 9.27691 18.4718 6.89628C17.8543 4.47503 13.8393 3.67878 10.0393 5.02878C7.77496 5.83253 5.32683 7.09378 3.56621 8.74003C1.47308 10.6975 1.13933 12.4019 1.27683 13.1138C1.76558 15.6438 5.25246 17.2913 6.64871 18.5119C6.57996 18.55 6.51496 18.5857 6.45621 18.6182C5.75621 18.9644 3.09808 20.3557 2.43308 21.825C1.67871 23.4919 2.55308 24.6882 3.13183 24.8494C4.92496 25.3482 6.76496 24.4507 7.75433 22.9757C8.74308 21.5013 8.62246 19.5807 8.16871 18.7044C8.16308 18.6938 8.15684 18.6832 8.15121 18.6719C8.33184 18.565 8.51621 18.4563 8.69871 18.3488C9.05496 18.1394 9.40496 17.9444 9.70809 17.7794C9.53808 18.2444 9.41371 18.8025 9.34933 19.6082C9.27308 20.5544 9.66121 21.7775 10.1687 22.2588C10.3925 22.4707 10.6612 22.4757 10.8312 22.4757C11.4218 22.4757 11.6912 21.9844 11.9881 21.4032C12.3518 20.6907 12.675 19.8607 12.675 19.8607C12.675 19.8607 12.27 22.1019 13.3737 22.1019C13.7762 22.1019 14.1806 21.58 14.3612 21.3144C14.3618 21.3175 14.3618 21.3188 14.3618 21.3188C14.3618 21.3188 14.3725 21.3013 14.3931 21.2669C14.435 21.2032 14.4587 21.1625 14.4587 21.1625C14.4587 21.1625 14.4593 21.1582 14.4606 21.1507C14.6225 20.87 14.9812 20.23 15.5187 19.1744C16.2137 17.8107 16.88 16.1019 16.88 16.1019C16.88 16.1019 16.9418 16.5194 17.145 17.2107C17.2643 17.6169 17.5181 18.0663 17.7187 18.4975C17.5575 18.7213 17.4587 18.8494 17.4587 18.8494C17.4587 18.8494 17.4593 18.8519 17.4612 18.8563C17.3325 19.0275 17.1881 19.2119 17.0368 19.3919C16.4881 20.045 15.835 20.7913 15.7475 21.0063C15.6443 21.26 15.6687 21.4463 15.8681 21.5969C16.0137 21.7063 16.2725 21.7238 16.5431 21.7057C17.0362 21.6725 17.3825 21.55 17.5537 21.4757C17.8206 21.3813 18.1312 21.2332 18.4225 21.0188C18.9606 20.6232 19.285 20.0575 19.2537 19.3075C19.2362 18.8944 19.105 18.485 18.9381 18.0988C18.9868 18.0288 19.0356 17.9575 19.085 17.8863C19.9331 16.6463 20.5912 15.2838 20.5912 15.2838C20.5912 15.2838 20.6531 15.7013 20.8562 16.3925C20.9587 16.7419 21.1618 17.1238 21.3443 17.4975C20.5468 18.1457 20.0525 18.8988 19.8806 19.3925C19.5631 20.3063 19.8118 20.72 20.2781 20.8144C20.4893 20.8569 20.7881 20.76 21.0125 20.665C21.2918 20.5725 21.6275 20.4182 21.9412 20.1875C22.4793 19.7919 22.9968 19.2382 22.9656 18.4888C22.9512 18.1475 22.8587 17.8088 22.7331 17.4838C23.4093 17.2019 24.2843 17.0457 25.3993 17.1757C27.7912 17.455 28.26 18.9482 28.1706 19.5732C28.0806 20.1982 27.5793 20.5419 27.4112 20.6457C27.2437 20.7494 27.1925 20.7857 27.2062 20.8625C27.2268 20.9744 27.3043 20.9707 27.4475 20.9463C27.6443 20.9132 28.7031 20.4382 28.7487 19.2844C28.8056 17.8182 27.4025 16.2094 24.9168 16.2225ZM6.48121 22.4375C5.68871 23.3019 4.58246 23.6282 4.10746 23.3532C3.59496 23.0563 3.79808 21.7838 4.76996 20.8663C5.36246 20.3075 6.12746 19.7925 6.63496 19.4757C6.75059 19.4063 6.91996 19.3044 7.12621 19.1807C7.16059 19.1613 7.17996 19.1507 7.17996 19.1507L7.17934 19.1494C7.21934 19.1257 7.25996 19.1013 7.30184 19.0757C7.65621 20.3813 7.31309 21.5307 6.48121 22.4375ZM12.2531 18.5144C11.9775 19.1869 11.4 20.9082 11.0481 20.8157C10.7462 20.7363 10.5625 19.4282 10.9881 18.1407C11.2018 17.4925 11.6593 16.7182 11.9281 16.4175C12.3606 15.9338 12.8368 15.7757 12.9525 15.9719C13.0993 16.2219 12.4262 18.0925 12.2531 18.5144ZM17.0212 20.7894C16.9043 20.8507 16.7968 20.8888 16.7475 20.8594C16.7106 20.8375 16.7956 20.7569 16.7956 20.7569C16.7956 20.7569 17.3918 20.115 17.6268 19.8232C17.7637 19.6532 17.9218 19.4513 18.0943 19.2263C18.0956 19.2488 18.0962 19.2713 18.0962 19.2932C18.095 20.0619 17.3525 20.5807 17.0212 20.7894ZM20.6943 19.9519C20.6068 19.89 20.6218 19.6894 20.9087 19.0638C21.0212 18.8182 21.2787 18.405 21.725 18.01C21.7768 18.1725 21.8081 18.3282 21.8075 18.4732C21.8018 19.4407 21.1118 19.8019 20.6943 19.9519Z" fill="#F06292"/>
</svg>
