<svg width="23" height="24" viewBox="0 0 23 24" fill="none" xmlns="http://www.w3.org/2000/svg">
<g clip-path="url(#clip0)">
<path d="M15.5384 6.76202L15.4665 7.15302C15.3554 7.89402 15.3956 8.10602 15.7004 8.38102L15.9946 8.63502L15.6898 10.053C15.5077 10.899 15.2845 11.608 15.1426 11.841C15.0209 12.042 14.8791 12.338 14.8484 12.497C14.7976 12.687 14.6251 12.878 14.3616 13.047C14.1287 13.185 13.6716 13.555 13.3477 13.852C13.0889 14.095 12.9107 14.244 12.8139 14.308L12.4976 14.569C12.396 14.739 12.3385 14.876 12.3165 14.98C12.2945 15.087 12.3069 15.158 12.3395 15.21C12.3711 15.26 12.4257 15.295 12.5005 15.317C12.589 15.3387 12.6801 15.3464 12.7708 15.34C12.9759 15.3254 13.1789 15.2879 13.3764 15.228C13.4435 15.209 13.4962 15.191 13.5422 15.175C13.6131 15.084 13.777 14.912 14.0674 14.613C14.8379 13.82 15.1321 13.386 14.8283 13.503C14.7162 13.545 14.767 13.439 14.9596 13.227C15.3659 12.814 15.5988 12.19 16.0856 10.233C16.4709 8.68802 16.4709 8.66602 16.7545 8.66602C16.8877 8.66602 17.2644 8.69002 17.2644 8.69002V6.76202H16.4H15.5384ZM19.2175 9.92702C19.1561 9.92702 19.0545 10.023 18.9942 10.129C18.883 10.319 19.0143 10.435 20.6875 11.525C21.6813 12.182 22.4825 12.742 22.4624 12.785C22.4422 12.816 21.6305 13.367 20.6578 14.002C18.8926 15.144 18.883 15.155 19.045 15.388C19.2481 15.663 19.045 15.758 21.3363 14.266L23 13.155V12.319L21.1437 11.123C20.1403 10.467 19.2682 9.93802 19.2175 9.92702ZM3.80267 10.044C3.75187 10.044 2.87979 10.584 1.87642 11.229L0 12.425V13.261L1.86588 14.478C2.90088 15.144 3.77296 15.695 3.81321 15.695C3.85346 15.695 3.93492 15.599 4.01638 15.483C4.13808 15.282 4.03554 15.197 2.32204 14.065C0.69 12.996 0.5175 12.848 0.680417 12.732C0.782 12.658 1.5525 12.16 2.38433 11.621C4.28087 10.404 4.17929 10.488 4.02692 10.234C3.96654 10.129 3.864 10.034 3.80363 10.044H3.80267ZM12.1248 10.067C11.845 10.065 11.2432 10.51 9.4415 12.045C9.36388 12.238 9.35717 12.371 9.39262 12.457C9.41562 12.516 9.45779 12.557 9.51625 12.587C9.57375 12.617 9.6485 12.635 9.73092 12.642C9.89479 12.657 10.0884 12.63 10.2446 12.598L10.35 12.573C10.3861 12.5225 10.4335 12.482 10.488 12.455C10.5992 12.391 11.0659 11.947 11.5326 11.471C12.3539 10.603 12.5465 10.211 12.212 10.084C12.1846 10.0726 12.1553 10.0669 12.1258 10.067H12.1248ZM14.2293 10.67C13.983 10.677 13.5393 10.975 12.7794 11.608C12.398 11.931 12.1565 12.105 12.0271 12.141L11.5249 12.555C11.3361 12.915 11.3083 13.138 11.3582 13.261C11.3706 13.2914 11.3887 13.3188 11.4114 13.3418C11.4341 13.3648 11.461 13.3829 11.4904 13.395C11.5636 13.4252 11.6417 13.4405 11.7204 13.44C11.9085 13.4379 12.0955 13.4093 12.2762 13.355C12.3705 13.3286 12.4635 13.2979 12.5551 13.263L12.5829 13.251L12.6337 13.223C12.7295 13.094 12.95 12.851 13.226 12.571C14.098 11.693 14.5437 11.069 14.4526 10.836C14.4114 10.723 14.3405 10.666 14.2293 10.67ZM11.9063 11.75C11.8354 11.758 11.6763 11.886 11.3898 12.148C10.9758 12.53 10.5244 12.75 10.3682 12.652C10.3319 12.6606 10.2955 12.6686 10.259 12.676C10.0999 12.709 9.9015 12.736 9.72421 12.721C9.64067 12.7157 9.5588 12.6944 9.48271 12.658C9.41094 12.6238 9.35367 12.5633 9.32171 12.488C9.28625 12.398 9.28625 12.286 9.3265 12.143L8.70358 12.677L7.29387 13.894V15.867L11.913 12.07C11.9121 12.0284 11.9173 11.987 11.9284 11.947C11.9638 11.813 11.9619 11.745 11.9063 11.751V11.75ZM13.8939 12.389C13.824 12.389 13.707 12.492 13.5202 12.699C13.2662 12.982 12.8666 13.256 12.6548 13.312L12.6222 13.33C12.5874 13.345 12.5523 13.359 12.5168 13.372C12.4593 13.392 12.3845 13.416 12.2983 13.44C12.1258 13.489 11.9111 13.534 11.7195 13.529C11.6291 13.5289 11.5396 13.5106 11.4559 13.475C11.377 13.4411 11.3138 13.3766 11.2796 13.295C11.224 13.156 11.246 12.961 11.3678 12.684L7.29292 16.033V17.238H9.08308L12.88 14.126C12.9787 14.012 13.1272 13.856 13.3275 13.661C13.8642 13.142 13.9859 12.963 13.9859 12.698C13.9859 12.492 13.9639 12.388 13.8939 12.388V12.389ZM14.7976 14.339L14.4727 14.677C14.2907 14.857 13.9658 15.079 13.7435 15.174L13.6994 15.194L13.6965 15.199L13.6869 15.209C13.6783 15.216 13.6745 15.217 13.6677 15.22C13.579 15.2551 13.4888 15.2861 13.3975 15.313C13.1944 15.3747 12.9856 15.4133 12.7746 15.428C12.6748 15.4347 12.5747 15.4256 12.4775 15.401C12.3932 15.3817 12.3187 15.3303 12.2686 15.257C12.2226 15.183 12.2092 15.084 12.235 14.962C12.2556 14.8752 12.2862 14.7912 12.3261 14.712L9.26229 17.238H13.3371L13.824 16.656C14.4929 15.842 14.7976 15.26 14.7976 14.762V14.339Z" fill="white"/>
</g>
<defs>
<clipPath id="clip0">
<rect width="23" height="24" fill="white"/>
</clipPath>
</defs>
</svg>
