<svg width="30" height="30" viewBox="0 0 30 30" fill="none" xmlns="http://www.w3.org/2000/svg">
<path d="M26.25 3.75H3.75V26.25H26.25V3.75Z" fill="#1976D2"/>
<path d="M17.1813 13.75H8.89191V15.79H11.865V25H14.2207V15.79H17.1813V13.75Z" fill="white"/>
<path d="M24.4962 16.3025C24.4962 16.3025 23.3794 15.5575 22.1169 15.5575C20.8544 15.5575 20.4 16.1575 20.4 16.7988C20.4 18.4538 25.0131 18.2881 25.0131 21.6188C25.0131 26.7494 17.9794 24.4738 17.9794 24.4738V22.0125C17.9794 22.0125 19.3244 23.0263 20.9375 23.0263C22.5506 23.0263 22.4894 21.9713 22.4894 21.8263C22.4894 20.2957 17.9175 20.2957 17.9175 16.9025C17.9175 12.2894 24.5787 14.1094 24.5787 14.1094L24.4962 16.3025Z" fill="white"/>
</svg>
